<svg width="4" height="12" viewBox="0 0 4 12" fill="none" xmlns="http://www.w3.org/2000/svg">
<path fill-rule="evenodd" clip-rule="evenodd" d="M1.77782 3.1113C2.57226 3.1113 3.22226 2.4613 3.22226 1.66686C3.22226 0.872412 2.57226 0.222412 1.77782 0.222412C0.983374 0.222412 0.333374 0.872412 0.333374 1.66686C0.333374 2.4613 0.983374 3.1113 1.77782 3.1113ZM1.77782 4.55575C0.983374 4.55575 0.333374 5.20575 0.333374 6.00019C0.333374 6.79463 0.983374 7.44463 1.77782 7.44463C2.57226 7.44463 3.22226 6.79463 3.22226 6.00019C3.22226 5.20575 2.57226 4.55575 1.77782 4.55575ZM0.333374 10.3335C0.333374 9.53908 0.983374 8.88908 1.77782 8.88908C2.57226 8.88908 3.22226 9.53908 3.22226 10.3335C3.22226 11.128 2.57226 11.778 1.77782 11.778C0.983374 11.778 0.333374 11.128 0.333374 10.3335Z" fill="#CAC4D0"/>
</svg>
