<svg width="8" height="9" viewBox="0 0 8 9" fill="none" xmlns="http://www.w3.org/2000/svg">
<path d="M5.87227 5.57017C6.105 5.44515 6.37138 5.37399 6.65508 5.37399H6.65604C6.68489 5.37399 6.69835 5.33937 6.6772 5.32013C6.38217 5.05536 6.04515 4.84152 5.67994 4.68735C5.67609 4.68543 5.67224 4.68446 5.6684 4.68254C6.2656 4.24882 6.65412 3.54392 6.65412 2.74861C6.65412 1.43111 5.58858 0.363647 4.27396 0.363647C2.95935 0.363647 1.89477 1.43111 1.89477 2.74861C1.89477 3.54392 2.28329 4.24882 2.88145 4.68254C2.87761 4.68446 2.87376 4.68543 2.86991 4.68735C2.44004 4.86911 2.05441 5.12972 1.72263 5.46246C1.39277 5.79173 1.13016 6.18205 0.949444 6.61167C0.771643 7.03236 0.675685 7.4831 0.666711 7.93974C0.666454 7.95001 0.668255 7.96022 0.672006 7.96978C0.675757 7.97933 0.681383 7.98804 0.688553 7.99539C0.695723 8.00274 0.704291 8.00858 0.713753 8.01257C0.723214 8.01655 0.733378 8.0186 0.743645 8.0186H1.31969C1.36104 8.0186 1.39566 7.98494 1.39662 7.94359C1.41586 7.20117 1.71302 6.50588 2.23905 5.97888C2.7824 5.43361 3.50558 5.13357 4.27493 5.13357C4.8202 5.13357 5.34335 5.28455 5.79438 5.56728C5.80596 5.57456 5.81926 5.57867 5.83294 5.57917C5.84661 5.57968 5.86018 5.57657 5.87227 5.57017ZM4.27493 4.40269C3.83448 4.40269 3.41999 4.23055 3.10745 3.91801C2.95367 3.76463 2.83176 3.58234 2.74874 3.38164C2.66572 3.18094 2.62323 2.9658 2.62373 2.74861C2.62373 2.3072 2.79587 1.89175 3.10745 1.57921C3.41903 1.26666 3.83352 1.09452 4.27493 1.09452C4.71634 1.09452 5.12986 1.26666 5.4424 1.57921C5.59618 1.73259 5.71809 1.91488 5.80111 2.11558C5.88413 2.31627 5.92662 2.53142 5.92613 2.74861C5.92613 3.19002 5.75399 3.60546 5.4424 3.91801C5.12986 4.23055 4.71537 4.40269 4.27493 4.40269ZM7.81198 6.69149H7.00417V5.88368C7.00417 5.84136 6.96955 5.80674 6.92723 5.80674H6.38869C6.34638 5.80674 6.31176 5.84136 6.31176 5.88368V6.69149H5.50395C5.46164 6.69149 5.42702 6.72611 5.42702 6.76842V7.30696C5.42702 7.34927 5.46164 7.38389 5.50395 7.38389H6.31176V8.1917C6.31176 8.23402 6.34638 8.26864 6.38869 8.26864H6.92723C6.96955 8.26864 7.00417 8.23402 7.00417 8.1917V7.38389H7.81198C7.85429 7.38389 7.88891 7.34927 7.88891 7.30696V6.76842C7.88891 6.72611 7.85429 6.69149 7.81198 6.69149Z" fill="#C4C4C4"/>
</svg>
