<svg width="8" height="8" viewBox="0 0 8 8" fill="none" xmlns="http://www.w3.org/2000/svg">
<path d="M4.51133 1.24255H4.02985V3.92246L5.76939 4.74923L5.97608 4.31436L4.51133 3.6182V1.24255Z" fill="#C4C4C4"/>
<path d="M4.2778 0.0463867C2.28344 0.0463867 0.666687 1.66314 0.666687 3.6575C0.666687 5.65185 2.28344 7.26861 4.2778 7.26861C6.27216 7.26861 7.88891 5.65185 7.88891 3.6575C7.88891 1.66314 6.27216 0.0463867 4.2778 0.0463867ZM4.2778 6.78713C2.54936 6.78713 1.14817 5.38594 1.14817 3.6575C1.14817 1.92905 2.54936 0.527868 4.2778 0.527868C6.00624 0.527868 7.40743 1.92905 7.40743 3.6575C7.40743 5.38594 6.00624 6.78713 4.2778 6.78713Z" fill="#C4C4C4"/>
</svg>
