<svg xmlns="http://www.w3.org/2000/svg" width="15" height="15" viewBox="0 0 15 15" fill="none">
<path d="M11.5417 1.66667V1.79167H11.6667H13.3333C14.181 1.79167 14.875 2.4857 14.875 3.33333V4.16667C14.875 6.22661 13.324 7.90856 11.3261 8.15931L11.2545 8.16829L11.2265 8.23473C10.9708 8.8405 10.5715 9.37492 10.0631 9.79181C9.55466 10.2087 8.95236 10.4955 8.30824 10.6275L8.20833 10.648V10.75V13.3333V13.4583H8.33333H11.5417V14.875H3.45833V13.4583H6.66667H6.79167V13.3333V10.75V10.648L6.69176 10.6275C6.04764 10.4955 5.44534 10.2087 4.93689 9.79181C4.42845 9.37492 4.02915 8.8405 3.7735 8.23473L3.74546 8.16829L3.6739 8.15931C1.67605 7.90856 0.125 6.22661 0.125 4.16667V3.33333C0.125 2.4857 0.819036 1.79167 1.66667 1.79167H3.33333H3.45833V1.66667V0.125H11.5417V1.66667ZM1.66667 3.20833H1.54167V3.33333V4.16667C1.54167 5.3057 2.27758 6.26735 3.29078 6.6342L3.45833 6.69487V6.51667V3.33333V3.20833H3.33333H1.66667ZM5 1.54167H4.875V1.66667V6.66667C4.875 8.1107 6.05596 9.29167 7.5 9.29167C8.94404 9.29167 10.125 8.1107 10.125 6.66667V1.66667V1.54167H10H5ZM11.5417 6.51667V6.69487L11.7092 6.6342C12.7224 6.26735 13.4583 5.3057 13.4583 4.16667V3.33333V3.20833H13.3333H11.6667H11.5417V3.33333V6.51667Z" fill="white" fill-opacity="0.67" stroke="#171717" stroke-width="0.25"/>
</svg>