<svg xmlns="http://www.w3.org/2000/svg" width="12" height="16" viewBox="0 0 12 16" fill="none">
<path d="M8.40659 8.98553L8.40657 8.98553C7.80758 9.0162 7.40195 9.17764 7.03358 9.48007C6.64652 9.79784 6.28673 10.2814 5.8073 11.0006L5.61844 11.2841C5.61842 11.2841 5.61839 11.2841 5.61837 11.2842C5.5751 11.3491 5.51945 11.4049 5.45461 11.4484C5.38973 11.4919 5.31692 11.5222 5.24034 11.5375C5.16375 11.5528 5.0849 11.5529 5.00829 11.5377C4.93168 11.5226 4.8588 11.4925 4.79383 11.4491L4.7938 11.4491L4.39547 11.1834L4.39519 11.1832L4.59221 10.8879C4.56603 10.8704 4.54354 10.848 4.52603 10.8219C4.50851 10.7958 4.49632 10.7664 4.49015 10.7356C4.48397 10.7047 4.48394 10.673 4.49004 10.6421C4.49615 10.6113 4.50827 10.5819 4.52573 10.5557L8.40659 8.98553ZM8.40659 8.98553C8.70747 8.9701 8.9794 8.72482 8.9794 8.39141V7.90625C8.9794 7.73265 8.90312 7.55963 8.73758 7.44498C8.59092 7.34341 8.40891 7.31167 8.22909 7.31167H7.17313C6.58265 7.31167 6.1035 6.83231 6.1035 6.24145V6.22468C6.1035 6.15925 6.15634 6.105 6.22468 6.105H9.58304C10.445 6.105 11.1441 6.80403 11.1444 7.66645M8.40659 8.98553L11.1444 7.66645M4.80941 7.94722C4.99128 8.22507 5.23226 8.46034 5.5143 8.63571C5.12632 9.04879 4.77773 9.53749 4.4193 10.0752L4.41928 10.0753L4.2304 10.3588C4.23037 10.3588 4.23034 10.3588 4.2303 10.3589L4.80941 7.94722ZM4.80941 7.94722C4.65362 7.99426 4.48729 8.02137 4.3125 8.02137H3.35417C2.99871 8.02137 2.67108 7.91505 2.39588 7.73807C2.12054 7.91526 1.79289 8.02167 1.4375 8.02167H0.479167C0.437122 8.02167 0.395727 8.02001 0.355 8.01687V9.91216C0.355 10.8348 0.721304 11.7193 1.37377 12.3717L1.37382 12.3718L2.16744 13.1657L2.27137 13.2697V13.4167V14.9783H9.22744M4.80941 7.94722L9.22744 14.9783M11.1444 7.66645C11.1444 7.66646 11.1444 7.66646 11.1444 7.66647L11.145 10.3084L11.1444 7.66645ZM9.22744 14.9783V13.4179V13.2709L9.33138 13.1669L10.4068 12.0911L10.4068 12.0911C10.8795 11.6183 11.1451 10.9771 11.145 10.3085L9.22744 14.9783ZM7.31107 0.479167V4.43667H6.22767C6.18592 4.43667 6.14483 4.43831 6.1044 4.44141V0.479167C6.1044 0.410488 6.15989 0.355 6.22857 0.355H7.1869C7.25558 0.355 7.31107 0.410488 7.31107 0.479167ZM10.1858 1.4375V4.49975C9.99279 4.45984 9.79155 4.43667 9.58244 4.43667H8.9791V1.4375C8.9791 1.36882 9.03459 1.31333 9.10327 1.31333H10.0616C10.1303 1.31333 10.1858 1.36882 10.1858 1.4375ZM1.4375 6.35333H0.479167C0.410488 6.35333 0.355 6.29785 0.355 6.22917V2.39583C0.355 2.32716 0.410488 2.27167 0.479167 2.27167H1.4375C1.50618 2.27167 1.56167 2.32716 1.56167 2.39583V6.22917C1.56167 6.29785 1.50618 6.35333 1.4375 6.35333ZM4.3122 6.35333H3.35387C3.28519 6.35333 3.2297 6.29785 3.2297 6.22917V1.4375C3.2297 1.36882 3.28519 1.31333 3.35387 1.31333H4.3122C4.38088 1.31333 4.43637 1.36882 4.43637 1.4375V6.22917C4.43637 6.29785 4.38088 6.35333 4.3122 6.35333Z" stroke="white" stroke-opacity="0.67" stroke-width="0.71"/>
</svg>