<svg width="24" height="25" viewBox="0 0 24 25" fill="none" xmlns="http://www.w3.org/2000/svg">
<path d="M0 24.1423L1.66171 17.9692C0.321582 15.5645 -0.104189 12.7583 0.462523 10.0657C1.02924 7.37312 2.55042 4.97467 4.74693 3.3105C6.94344 1.64633 9.66794 0.828057 12.4205 1.00584C15.173 1.18362 17.769 2.34554 19.732 4.27837C21.695 6.2112 22.8934 8.7853 23.1072 11.5283C23.321 14.2713 22.536 16.9993 20.8961 19.2115C19.2563 21.4238 16.8716 22.972 14.1797 23.5721C11.4878 24.1722 8.66923 23.7838 6.24121 22.4783L0 24.1423ZM6.54215 20.1683L6.92814 20.3967C8.6868 21.4364 10.7409 21.8667 12.7703 21.6204C14.7997 21.3742 16.6905 20.4652 18.1479 19.0352C19.6053 17.6052 20.5476 15.7344 20.8278 13.7145C21.108 11.6945 20.7105 9.63888 19.6971 7.86784C18.6838 6.09679 17.1115 4.70985 15.2254 3.92315C13.3393 3.13645 11.2452 2.99418 9.2696 3.51851C7.29395 4.04285 5.54769 5.20433 4.30293 6.82196C3.05817 8.43958 2.38485 10.4225 2.38788 12.4617C2.38623 14.1525 2.85503 15.8106 3.74211 17.2514L3.98417 17.6495L3.05518 21.0949L6.54215 20.1683Z" fill="#00D95F"/>
<path fill-rule="evenodd" clip-rule="evenodd" d="M15.9102 14.0468C15.684 13.8648 15.419 13.7367 15.1356 13.6722C14.8522 13.6078 14.5577 13.6087 14.2747 13.6749C13.8495 13.8511 13.5747 14.5167 13.2999 14.8495C13.242 14.9293 13.1568 14.9852 13.0605 15.0068C12.9641 15.0285 12.8632 15.0143 12.7766 14.9669C11.2197 14.3587 9.9148 13.2434 9.0737 11.8021C9.00196 11.7121 8.96801 11.5979 8.97899 11.4835C8.98997 11.3691 9.04503 11.2634 9.13258 11.1887C9.43904 10.8861 9.66405 10.5112 9.78679 10.0989C9.81405 9.64409 9.70959 9.19105 9.48586 8.79381C9.3129 8.23689 8.98373 7.741 8.53724 7.36472C8.30696 7.26141 8.05163 7.22678 7.80205 7.26499C7.55247 7.3032 7.3193 7.41262 7.13068 7.58006C6.80323 7.86186 6.54331 8.21334 6.37009 8.60861C6.19686 9.00387 6.11472 9.43287 6.12973 9.86399C6.13074 10.1061 6.1615 10.3472 6.22132 10.5818C6.37324 11.1455 6.60686 11.6841 6.91479 12.1805C7.13696 12.5608 7.37937 12.9289 7.64097 13.2834C8.49115 14.4475 9.55985 15.4359 10.7877 16.1937C11.4039 16.5788 12.0625 16.8919 12.7504 17.1269C13.465 17.45 14.254 17.574 15.0336 17.4858C15.4778 17.4187 15.8986 17.2438 16.2591 16.9764C16.6196 16.709 16.9087 16.3573 17.1009 15.9523C17.2139 15.7076 17.2481 15.4341 17.1991 15.1692C17.0813 14.6276 16.3551 14.3079 15.9102 14.0468Z" fill="#00D95F"/>
</svg>
