<svg width="22" height="16" viewBox="0 0 22 16" fill="none" xmlns="http://www.w3.org/2000/svg">
<path d="M4.84722 16V7.75964L2.29164 5.42167L0 4.12427V14.5458C0 15.3504 0.651911 16 1.4542 16H4.84722Z" fill="#4285F4"/>
<path d="M16.4803 16H19.8734C20.6781 16 21.3276 15.348 21.3276 14.5458V4.12439L18.7319 5.61041L16.4803 7.75968V16Z" fill="#34A853"/>
<path d="M4.84719 7.7597L4.49945 4.53997L4.84719 1.45837L10.6638 5.82088L16.4804 1.45837L16.8694 4.3736L16.4804 7.7597L10.6638 12.1222L4.84719 7.7597Z" fill="#EA4335"/>
<path d="M16.4803 1.45838V7.75971L21.3276 4.12434V2.18543C21.3276 0.387161 19.2748 -0.637985 17.8377 0.44048L16.4803 1.45838Z" fill="#FBBC04"/>
<path d="M0 4.12425L2.22933 5.79631L4.84722 7.75962V1.45829L3.48991 0.440396C2.05029 -0.638152 0 0.387076 0 2.18527V4.12417V4.12425Z" fill="#C5221F"/>
</svg>
