<svg width="25" height="21" viewBox="0 0 25 21" fill="none" xmlns="http://www.w3.org/2000/svg">
<path d="M24.8888 2.84939C24.0801 3.19742 23.2299 3.43977 22.3593 3.57045C22.7663 3.50067 23.3653 2.76798 23.6037 2.47142C23.9659 2.02408 24.2419 1.51341 24.4178 0.965339C24.4178 0.924634 24.4585 0.866484 24.4178 0.837409C24.3973 0.826212 24.3743 0.820344 24.3509 0.820344C24.3276 0.820344 24.3046 0.826212 24.2841 0.837409C23.3386 1.34937 22.3325 1.74012 21.2893 2.00041C21.253 2.01151 21.2143 2.01251 21.1774 2.00329C21.1405 1.99407 21.1068 1.97498 21.08 1.94807C20.9988 1.85138 20.9114 1.76009 20.8183 1.67477C20.3929 1.29356 19.9101 0.981567 19.3878 0.750184C18.6828 0.460934 17.9212 0.335666 17.1607 0.38384C16.4227 0.430446 15.7022 0.628382 15.044 0.965339C14.3959 1.32059 13.8262 1.80321 13.3693 2.38419C12.8887 2.98218 12.5417 3.67615 12.3517 4.41944C12.195 5.12645 12.1772 5.85718 12.2994 6.57098C12.2994 6.6931 12.2994 6.71054 12.1947 6.6931C8.04862 6.08252 4.64685 4.61133 1.86729 1.4538C1.74518 1.31424 1.68121 1.31424 1.58236 1.4538C0.372842 3.29133 0.960155 6.19882 2.47205 7.63512C2.67558 7.82702 2.88491 8.0131 3.10588 8.18755C2.41269 8.13834 1.73642 7.95048 1.11716 7.63512C1.00086 7.55953 0.936895 7.60023 0.93108 7.73979C0.914596 7.93328 0.914596 8.12781 0.93108 8.32129C1.05241 9.24855 1.41784 10.1269 1.98999 10.8666C2.56214 11.6064 3.32048 12.1808 4.18747 12.5313C4.39882 12.6219 4.61905 12.6901 4.84456 12.7349C4.20284 12.8612 3.54467 12.8809 2.89654 12.793C2.75698 12.7639 2.70465 12.8395 2.75698 12.9733C3.61179 15.2993 5.46677 16.0087 6.82747 16.4041C7.01355 16.4332 7.19963 16.4332 7.40897 16.4797C7.40897 16.4797 7.40897 16.4797 7.37408 16.5146C6.97285 17.2473 5.35047 17.7416 4.60615 17.9974C3.24758 18.4854 1.79909 18.6719 0.361212 18.544C0.134427 18.5091 0.0820924 18.515 0.0239426 18.544C-0.0342073 18.5731 0.0239426 18.6371 0.0879074 18.6952C0.378657 18.8871 0.669406 19.0558 0.971785 19.2186C1.87197 19.7096 2.82365 20.0996 3.8095 20.3816C8.91505 21.7888 14.6603 20.7537 18.4923 16.9449C21.5045 13.956 22.5628 9.83319 22.5628 5.70455C22.5628 5.54754 22.7547 5.45451 22.8652 5.3731C23.6273 4.77932 24.2991 4.07809 24.8597 3.29133C24.9568 3.17405 25.0066 3.02473 24.9993 2.87265C24.9993 2.78543 24.9993 2.80287 24.8888 2.84939Z" fill="#33CCFF"/>
</svg>
