<svg width="30" height="30" viewBox="0 0 30 30" fill="none" xmlns="http://www.w3.org/2000/svg">
<g clip-path="url(#clip0_43_1510)">
<circle cx="15" cy="15.0962" r="14.4444" fill="#F23C3B"/>
<path d="M20.275 7.89619V8.02119H20.4H23.1C23.3055 8.02119 23.5027 8.10284 23.648 8.24818C23.7934 8.39352 23.875 8.59065 23.875 8.79619V11.4962C23.875 13.4205 23.4731 14.9474 22.7477 16.0009C22.0256 17.0497 20.9779 17.6375 19.6587 17.6821L19.5897 17.6844L19.5549 17.744C19.1658 18.4117 18.6349 18.9859 17.9998 19.4261C17.3647 19.8664 16.6407 20.1619 15.879 20.292L15.775 20.3097V20.4152V22.2962V22.4212H15.9H17.575V23.9712H12.425V22.4212H14.1H14.225V22.2962V20.4152V20.3096L14.121 20.292C13.359 20.1624 12.6349 19.8671 11.9997 19.4268C11.3645 18.9866 10.8338 18.4121 10.4451 17.7441L10.4104 17.6844L10.3413 17.6821C9.0221 17.6375 7.97439 17.0497 7.25226 16.0009C6.5269 14.9474 6.125 13.4205 6.125 11.4962V8.79619C6.125 8.59065 6.20665 8.39352 6.35199 8.24818C6.49733 8.10284 6.69446 8.02119 6.9 8.02119H9.6H9.725V7.89619V6.99619C9.725 6.79065 9.80665 6.59352 9.95199 6.44818C10.0973 6.30284 10.2945 6.22119 10.5 6.22119H19.5C19.7055 6.22119 19.9027 6.30284 20.048 6.44818C20.1933 6.59352 20.275 6.79065 20.275 6.99619V7.89619ZM7.8 9.57119H7.675V9.69619V11.4962C7.675 12.0857 7.72379 13.0168 7.97789 13.8893C8.23101 14.7584 8.69668 15.5981 9.55145 15.9584L9.725 16.0315V15.8432V9.69619V9.57119H9.6H7.8ZM11.4 7.77119H11.275V7.89619V15.0962C11.275 17.1506 12.9456 18.8212 15 18.8212C17.0544 18.8212 18.725 17.1506 18.725 15.0962V7.89619V7.77119H18.6H11.4ZM20.275 15.8432V16.0315L20.4486 15.9584C21.3033 15.5981 21.769 14.7584 22.0221 13.8893C22.2762 13.0168 22.325 12.0857 22.325 11.4962V9.69619V9.57119H22.2H20.4H20.275V9.69619V15.8432Z" fill="white" stroke="#DBFF00" stroke-width="0.25"/>
</g>
<defs>
<clipPath id="clip0_43_1510">
<rect width="28.8889" height="28.8889" fill="white" transform="translate(0.555542 0.651733)"/>
</clipPath>
</defs>
</svg>
