<svg width="31" height="31" viewBox="0 0 31 31" fill="none" xmlns="http://www.w3.org/2000/svg">
<g clip-path="url(#clip0_46_2055)">
<circle cx="15.6" cy="15.1962" r="15.0556" fill="#F23C3B"/>
<path d="M20.6325 11.8166C20.6325 11.8166 17.0792 16.7912 11.7492 16.7912C10.3279 16.7912 7.84058 17.5019 7.84058 20.3446V23.1872H15.6579V20.3446C15.6579 18.5679 17.7899 19.6339 20.6325 14.6593L19.5665 13.5933M9.2619 10.3953V8.26328H23.4752V18.2126H21.3432M14.9472 7.55261H17.7899V8.97394H14.9472V7.55261ZM11.7492 16.7912C12.4089 16.7912 13.0416 16.5292 13.508 16.0627C13.9745 15.5963 14.2366 14.9636 14.2366 14.3039C14.2366 13.6442 13.9745 13.0116 13.508 12.5451C13.0416 12.0787 12.4089 11.8166 11.7492 11.8166C11.0896 11.8166 10.4569 12.0787 9.99043 12.5451C9.52396 13.0116 9.2619 13.6442 9.2619 14.3039C9.2619 14.9636 9.52396 15.5963 9.99043 16.0627C10.4569 16.5292 11.0896 16.7912 11.7492 16.7912V16.7912Z" stroke="white" stroke-width="1.42133"/>
</g>
<defs>
<clipPath id="clip0_46_2055">
<rect width="30.1111" height="30.1111" fill="white" transform="translate(0.544434 0.140625)"/>
</clipPath>
</defs>
</svg>
